PathFileType	4	(X/Y/Z)	OpenSim_Sub10_EMGStiffKnee_Magnet.trc
DataRate	CameraRate	NumFrames	NumMarkers	Units	OrigDataRate	OrigDataStartFrame	OrigNumFrames
100	100	13	8	m	100	5232	8371
Frame#	Time	torso_imu_offset_imu	pelvis_imu_offset_imu	tibia_r_imu_offset_imu	femur_r_imu_offset_imu	tibia_l_imu_offset_imu	femur_l_imu_offset_imu	toes_r_imu_offset_imu	toes_l_imu_offset_imu
				X1	Y1	Z1	X2	Y2	Z2	X3	Y3	Z3	X4	Y4	Z4	X5	Y5	Z5	X6	Y6	Z6	X7	Y7	Z7	X8		Y8	Z8	

5232	52.31000000	-0.92480500	0.01684600	0.18945300	-0.55127000	-0.09277300	-0.77368200	-0.65234400	-0.62231400	-0.08398400	-0.65258800	-0.51831100	0.10644500	-0.73071300	0.33105500	0.08569300	-0.79126000	0.19970700	0.22631800	-0.64062500	-0.28002900	-0.35351600	-0.62817400	-0.16821300	-0.48461900
5233	52.32000000	-0.92480500	0.01684600	0.18725600	-0.54931600	-0.08422900	-0.77392600	-0.64819300	-0.62646500	-0.08593800	-0.65039100	-0.52246100	0.11132800	-0.74340800	0.31127900	0.08227500	-0.78881800	0.19555700	0.22412100	-0.64062500	-0.27807600	-0.35351600	-0.62353500	-0.17480500	-0.48681600
5234	52.33000000	-0.92480500	0.01684600	0.18725600	-0.54931600	-0.08203100	-0.77417000	-0.64160200	-0.63281200	-0.09252900	-0.64819300	-0.53271500	0.10473600	-0.75585900	0.27832000	0.07055700	-0.79296900	0.18896500	0.23095700	-0.64086900	-0.27612300	-0.34936500	-0.60522500	-0.18115200	-0.50708000
5235	52.34000000	-0.92480500	0.01489300	0.18945300	-0.54516600	-0.08422900	-0.77392600	-0.63940400	-0.63501000	-0.09252900	-0.64184600	-0.53271500	0.10717800	-0.75756800	0.25634800	0.06494100	-0.79296900	0.19116200	0.22631800	-0.63867200	-0.28002900	-0.34301800	-0.59619100	-0.18750000	-0.52050800
5236	52.35000000	-0.92675800	0.01489300	0.18505900	-0.54516600	-0.08203100	-0.77172900	-0.63891600	-0.64526400	-0.09643600	-0.63940400	-0.53881800	0.10034200	-0.76391600	0.24755900	0.06323200	-0.79296900	0.18896500	0.22876000	-0.63647500	-0.28002900	-0.34521500	-0.58691400	-0.19409200	-0.52929700
5237	52.36000000	-0.92456100	0.00854500	0.18530300	-0.54516600	-0.07788100	-0.76733400	-0.62890600	-0.63891600	-0.10131800	-0.63525400	-0.54077100	0.10278300	-0.77026400	0.23437500	0.06396500	-0.79736300	0.18457000	0.23999000	-0.63232400	-0.28418000	-0.34716800	-0.57983400	-0.20068400	-0.53613300
5238	52.37000000	-0.92456100	0.00854500	0.18530300	-0.55151400	-0.08007800	-0.77197300	-0.63256800	-0.65161100	-0.10522500	-0.63720700	-0.54711900	0.10083000	-0.76757800	0.21899400	0.06030300	-0.79467800	0.17358400	0.23779300	-0.63037100	-0.28002900	-0.34106400	-0.57104500	-0.19824200	-0.54736300
5239	52.38000000	-0.92456100	0.00854500	0.18969700	-0.55419900	-0.06958000	-0.77465800	-0.62622100	-0.64941400	-0.11206100	-0.63501000	-0.54907200	0.09399400	-0.77417000	0.21679700	0.06274400	-0.79907200	0.17138700	0.23559600	-0.62817400	-0.28393600	-0.34497100	-0.56201200	-0.20263700	-0.55395500
5240	52.39000000	-0.92456100	0.00634800	0.19189500	-0.54736300	-0.07592800	-0.76977500	-0.62182600	-0.65771500	-0.10717800	-0.62866200	-0.55322300	0.09643600	-0.77392600	0.20800800	0.05859400	-0.79199200	0.15844700	0.23584000	-0.62793000	-0.28808600	-0.34082000	-0.55786100	-0.19360400	-0.54956100
5241	52.40000000	-0.91796900	0.00439500	0.19213900	-0.55175800	-0.07373000	-0.77197300	-0.61328100	-0.66186500	-0.11377000	-0.62670900	-0.54907200	0.09399400	-0.77856400	0.21240200	0.06298800	-0.78955100	0.15210000	0.24267600	-0.61962900	-0.28588900	-0.34082000	-0.55322300	-0.20019500	-0.55395500
5242	52.41000000	-0.92211900	-0.00000000	0.18579100	-0.55419900	-0.06958000	-0.76293900	-0.61108400	-0.66406200	-0.11816400	-0.62646500	-0.55737300	0.08984400	-0.77392600	0.20581100	0.06323200	-0.79785200	0.13891600	0.24267600	-0.61352500	-0.28784200	-0.33667000	-0.55542000	-0.19799800	-0.55859400
5243	52.42000000	-0.92456100	0.00634800	0.18750000	-0.56079100	-0.06543000	-0.77002000	-0.60253900	-0.67236300	-0.11352500	-0.62207000	-0.55932600	0.08520500	-0.77417000	0.21020500	0.06982400	-0.79541000	0.13232400	0.24731400	-0.61523400	-0.29394500	-0.34277300	-0.55761700	-0.19799800	-0.55175800
5244	52.43000000	-0.92651400	0.00000000	0.18554700	-0.55664100	-0.05712900	-0.76562500	-0.59399400	-0.67651400	-0.12670900	-0.62426800	-0.55517600	0.08056600	-0.76733400	0.20800800	0.07641600	-0.79516600	0.11938500	0.24511700	-0.60913100	-0.29589800	-0.33862300	-0.55566400	-0.19140600	-0.55395500
